<svg width="256" height="256" version="1.1" viewBox="0 0 128 128" xmlns="http://www.w3.org/2000/svg">
<circle cx="64" cy="36.213" r="24.843" fill="#03a9f4"/>
<path d="m73.316 24.826-16.562 16.562-5.1758-5.1758-10.221 10.221a24.843 24.843 0 0 0 22.643 14.623 24.843 24.843 0 0 0 22.773-14.918v-7.8555z" fill="#43a047" stroke="#8bc34a"/>
<path d="m47.438 19.65c-0.83671 0-1.6327 0.16846-2.3613 0.46875a24.843 24.843 0 0 0-3.8301 6.123c0.19792 3.2506 2.8912 5.8301 6.1914 5.8301 3.4288 0 6.2109-2.7821 6.2109-6.2109s-2.7821-6.2109-6.2109-6.2109z" fill="#ff0"/>
<path d="m64 7.8711c-15.612 0-28.342 12.73-28.342 28.342 0 6.006 1.8903 11.581 5.0977 16.174l-8.4961 8.4961c-2.7031-1.5359-5.8144-2.4258-9.123-2.4258-10.224 1e-6 -18.619 8.3953-18.619 18.619 0 10.224 8.3953 18.619 18.619 18.619 10.224 0 18.619-8.3953 18.619-18.619 0-3.3081-0.89037-6.4184-2.4258-9.1211l8.4961-8.4961c3.2875 2.2965 7.0801 3.9104 11.174 4.6445v11.99c-7.8209 2.2059-13.619 9.4181-13.619 17.91-1e-6 10.224 8.3953 18.619 18.619 18.619s18.619-8.3953 18.619-18.619c-1e-6 -8.492-5.7982-15.704-13.619-17.91v-11.99c4.0937-0.73418 7.8863-2.3481 11.174-4.6445l8.4961 8.4961c-1.5354 2.7027-2.4258 5.813-2.4258 9.1211 0 10.224 8.3953 18.619 18.619 18.619 10.224 0 18.619-8.3953 18.619-18.619s-8.3953-18.619-18.619-18.619c-3.3087 0-6.42 0.88986-9.123 2.4258l-8.4961-8.4961c3.2074-4.5926 5.0977-10.168 5.0977-16.174 0-15.612-12.73-28.342-28.342-28.342zm0 7c11.829 0 21.342 9.5131 21.342 21.342 0 11.829-9.5131 21.344-21.342 21.344s-21.342-9.5151-21.342-21.344c0-11.829 9.5131-21.342 21.342-21.342zm-40.863 53.586c4.8195 0 8.6191 3.7997 8.6191 8.6191s-3.7997 8.6191-8.6191 8.6191c-4.8195 0-8.6191-3.7997-8.6191-8.6191s3.7997-8.6191 8.6191-8.6191zm81.727 0c4.8195 1e-6 8.6191 3.7997 8.6191 8.6191s-3.7997 8.6191-8.6191 8.6191c-4.8195 2e-6 -8.6191-3.7997-8.6191-8.6191s3.7997-8.6191 8.6191-8.6191zm-40.863 16.928c4.8195 0 8.6191 3.7997 8.6191 8.6191 0 4.8195-3.7997 8.6191-8.6191 8.6191s-8.6191-3.7997-8.6191-8.6191c1e-6 -4.8195 3.7997-8.6191 8.6191-8.6191z" color="#000000" fill="#ffeb3b" stroke="#000" stroke-width="1.5"/>
</svg> 